<svg width="32" height="22" viewBox="0 0 32 22" fill="none" xmlns="http://www.w3.org/2000/svg">
<path fill-rule="evenodd" clip-rule="evenodd" d="M0.440947 10.1784C0.440947 10.1784 1.16259 10.0594 1.45993 10.37C1.75762 10.6806 1.5626 11.3233 1.16763 11.3341C0.772778 11.3446 0.407718 11.4176 0.148533 11.1423C-0.110768 10.8672 -0.0411014 10.3143 0.440947 10.1784ZM8.2745 14.5642C8.20494 14.5715 8.13138 14.5396 8.0561 14.4858C7.53876 13.7647 7.35188 11.2992 7.11435 11.1524C6.86811 11 5.9762 12.5184 4.20223 12.3553C3.46043 12.2867 2.70556 11.8063 2.26109 11.4736C2.30245 10.9131 2.30956 9.60505 3.41448 10.0305C4.08559 10.2888 5.23497 10.9983 6.24432 9.72411C7.36036 8.31485 7.97589 8.72414 8.34508 9.03054C8.71415 9.33693 8.46826 10.9299 9.01871 10.4845C9.56916 10.0391 11.7921 7.27387 11.7921 7.27387C11.7921 7.27387 13.513 5.5384 13.7765 7.3629C14.0402 9.1874 15.1622 11.2093 15.4595 11.1517C15.7571 11.0939 19.2187 4.05834 19.7146 3.60448C20.2103 3.15039 21.8795 3.21009 21.7999 4.37459C21.7208 5.53898 21.5508 12.7769 21.5508 12.7769C21.5508 12.7769 21.355 14.8166 21.6739 13.7265C21.8061 13.2747 21.9481 12.8669 22.1257 12.3914C22.9801 9.65616 24.4354 4.9836 25.1605 2.57599C25.3272 1.99975 25.4709 1.50521 25.5822 1.12514L25.5824 1.12411C25.6258 0.947885 25.6688 0.808438 25.712 0.683772C25.7726 0.479816 25.8136 0.344723 25.8264 0.309088C25.8586 0.21914 25.9497 0.150391 26.0772 0.100089C26.2054 0.0193083 26.3428 0.0150687 26.4988 0.0110583C26.9013 -0.0249206 27.4188 0.0274437 27.8844 0.16013C28.0198 0.165516 28.1673 0.208942 28.3067 0.308973V0.309202C28.3067 0.309202 28.3152 0.314358 28.3269 0.321921C28.33 0.324327 28.3334 0.32616 28.3368 0.328796C28.3659 0.349077 28.4131 0.388837 28.4679 0.454722C28.4696 0.456899 28.471 0.45942 28.4731 0.461482C28.4957 0.489211 28.5185 0.521867 28.5416 0.559336C28.8015 0.940666 28.9612 1.64363 28.801 2.89017C28.4021 6.00098 28.0931 12.4004 28.0931 12.4004C28.0931 12.4004 28.0316 12.7065 28.6728 11.3587C28.6952 11.3118 28.7238 11.2712 28.7501 11.2282C28.7848 11.2054 28.8237 11.1725 28.8717 11.1147C29.2676 10.6424 30.3327 10.365 31.0709 10.3706C31.3822 10.4083 31.6429 10.4867 31.7987 10.5848C32.0901 11.0285 31.918 12.6654 31.918 12.6654C31.304 12.7223 30.1328 13.0528 29.7177 13.1139C29.3023 13.1753 28.6719 15.871 27.7954 15.5953C26.9188 15.3197 24.9653 14.0943 24.9653 13.9258C24.9653 13.7793 25.119 11.9884 25.1588 11.5261C25.1619 11.4943 25.1642 11.4646 25.1666 11.4351C25.1675 11.4266 25.1682 11.4166 25.1682 11.4166V11.4172C25.1964 11.053 25.1713 10.8941 25.0031 11.2573C24.8585 11.57 24.2292 13.5696 23.5276 15.7476C23.4536 15.9378 22.1273 19.9512 21.9532 20.4403C21.7456 21.0079 21.571 21.4425 21.4503 21.667C21.2668 21.9158 21.0195 22.0715 20.6745 21.967C19.8131 21.7068 18.7226 20.5166 18.7123 20.2215C18.6917 18.556 18.7933 9.60116 18.3896 10.3474C17.9752 11.1126 14.7532 16.4226 14.7532 16.4226C14.6993 16.4318 14.6594 16.43 14.6119 16.4345C14.3837 16.4095 14.0302 16.3354 13.9325 16.117C13.9271 16.1042 13.9201 16.0924 13.9153 16.079C13.9106 16.0654 13.9053 16.0502 13.8973 16.0253C13.8535 15.8792 13.8356 15.7206 13.797 15.5905C13.6529 15.1041 13.4222 14.4069 13.1802 13.6976C12.8094 12.4882 12.4271 11.2513 12.3642 11.1147C12.2412 10.8474 12.062 10.9601 11.9013 11.1146C11.1818 11.7245 9.65419 14.4169 8.2745 14.5642Z" fill="white"/>
</svg>
